<svg width="33" height="33" viewBox="0 0 33 33" fill="none" xmlns="http://www.w3.org/2000/svg">
<circle cx="16.5" cy="16.5" r="16.5" fill="#8FE2FF"/>
<path d="M25.0555 12.6696C24.4729 12.9207 23.8401 13.1015 23.1872 13.1718C23.8601 12.7701 24.3724 12.1372 24.6135 11.3839C23.9907 11.7555 23.2876 12.0268 22.5543 12.1674C21.9617 11.5346 21.118 11.1428 20.1838 11.1428C18.3858 11.1428 16.9394 12.5993 16.9394 14.3872C16.9394 14.6384 16.9695 14.8895 17.0197 15.1305C14.3278 14.9899 11.9271 13.7042 10.33 11.7355C10.0488 12.2176 9.88805 12.7701 9.88805 13.3727C9.88805 14.4977 10.4606 15.4922 11.3345 16.0747C10.8021 16.0547 10.2999 15.904 9.86795 15.6629C9.86795 15.673 9.86795 15.693 9.86795 15.7031C9.86795 17.2801 10.9829 18.5859 12.4695 18.8872C12.1983 18.9576 11.907 18.9977 11.6157 18.9977C11.4048 18.9977 11.2039 18.9776 11.003 18.9475C11.4148 20.2332 12.6101 21.1674 14.0365 21.1975C12.9215 22.0714 11.5253 22.5837 10.0086 22.5837C9.73737 22.5837 9.48626 22.5736 9.2251 22.5435C10.6615 23.4676 12.3691 24 14.2072 24C20.1738 24 23.4383 19.058 23.4383 14.7689C23.4383 14.6283 23.4383 14.4877 23.4282 14.3471C24.061 13.885 24.6135 13.3125 25.0555 12.6696Z" fill="#12305B"/>
</svg>
